<?xml version="1.0" standalone="no"?><!DOCTYPE svg PUBLIC "-//W3C//DTD SVG 1.1//EN" "http://www.w3.org/Graphics/SVG/1.1/DTD/svg11.dtd"><svg t="1621146412823" class="icon" viewBox="0 0 1024 1024" version="1.1" xmlns="http://www.w3.org/2000/svg" p-id="2430" xmlns:xlink="http://www.w3.org/1999/xlink" width="102" height="102"><defs><style type="text/css"></style></defs><path d="M694.823385 522.948923H353.417846a20.48 20.48 0 0 1-20.558769-20.283077c0-11.165538 9.255385-20.302769 20.558769-20.302769h341.405539a20.48 20.48 0 0 1 20.578461 20.283077c0 11.185231-9.255385 20.302769-20.578461 20.302769M694.823385 702.936615H353.417846a20.48 20.48 0 0 1-20.558769-20.283077c0-11.185231 9.255385-20.322462 20.558769-20.322461h341.405539a20.48 20.48 0 0 1 20.578461 20.302769c0 11.165538-9.255385 20.283077-20.578461 20.283077M358.951385 303.064615H681.944615v-89.993846a10.476308 10.476308 0 0 0-10.299077-10.141538h-80.226461l-4.804923-13.528616c-9.590154-27.746462-36.332308-46.690462-66.500923-46.690461-30.188308 0-56.910769 18.944-66.520616 46.670769l-4.804923 13.548308h-80.226461a10.476308 10.476308 0 0 0-10.299077 10.141538v89.993846h0.689231z m362.752 39.916308H318.483692V213.070769c0-27.726769 22.646154-50.057846 50.747077-50.057846h52.125539c18.510769-36.548923 56.910769-60.219077 99.446154-60.219077 42.496 0 80.915692 23.670154 99.426461 60.219077h52.105846c28.120615 0 50.747077 22.331077 50.747077 50.057846l-1.378461 129.910154z" p-id="2431" data-spm-anchor-id="a313x.7781069.0.i9" class="selected" fill="#8bc17d"></path><path d="M782.749538 921.481846H257.457231c-10.968615 0-21.267692-2.028308-31.547077-6.104615-9.590154-4.056615-18.510769-9.452308-25.363692-16.896a77.863385 77.863385 0 0 1-17.132308-25.048616A81.270154 81.270154 0 0 1 177.230769 842.318769V303.064615c0-10.830769 2.048-20.972308 6.183385-31.113846 4.096-9.472 9.590154-18.274462 17.132308-25.048615a79.064615 79.064615 0 0 1 25.363692-16.915692 84.302769 84.302769 0 0 1 31.547077-6.104616h79.556923v39.936h-79.556923c-21.937231 0-40.448 17.604923-40.448 39.916308v539.254154c0 21.661538 17.821538 39.916308 40.448 39.916307h524.603077c21.937231 0 40.448-17.585231 40.448-39.916307V303.064615c0-21.661538-17.821538-39.916308-40.448-39.916307h-78.867693v-39.916308h79.556923c10.968615 0 21.267692 2.028308 31.527385 6.084923 9.609846 4.056615 18.510769 9.452308 25.383385 16.915692 7.542154 7.443692 13.036308 15.556923 17.132307 25.028923a81.329231 81.329231 0 0 1 6.183385 31.113847V841.649231c0 10.811077-2.067692 20.952615-6.163692 31.113846-4.135385 9.452308-9.609846 18.274462-17.152 25.028923a79.123692 79.123692 0 0 1-25.383385 16.935385 73.570462 73.570462 0 0 1-31.527385 6.754461" p-id="2432" data-spm-anchor-id="a313x.7781069.0.i8" class="selected" fill="#8bc17d"></path></svg>