<?xml version="1.0" standalone="no"?><!DOCTYPE svg PUBLIC "-//W3C//DTD SVG 1.1//EN" "http://www.w3.org/Graphics/SVG/1.1/DTD/svg11.dtd"><svg t="1621146486314" class="icon" viewBox="0 0 1024 1024" version="1.1" xmlns="http://www.w3.org/2000/svg" p-id="2674" xmlns:xlink="http://www.w3.org/1999/xlink" width="102" height="102"><defs><style type="text/css"></style></defs><path d="M114.530462 449.102769l102.025846-111.025231c5.907692-6.419692 14.296615-10.102154 23.000615-10.102153h188.061539v121.127384H114.530462zM469.267692 733.932308V230.321231a31.310769 31.310769 0 0 1 31.232-31.192616h425.353846a31.310769 31.310769 0 0 1 31.232 31.192616v472.398769a31.310769 31.310769 0 0 1-31.232 31.192615H879.655385a111.497846 111.497846 0 0 0-93.538462-89.737846 113.624615 113.624615 0 0 0-16.541538-1.220923c-53.070769 0-99.879385 38.951385-109.784616 90.958769H469.267692z m-350.030769 0a31.310769 31.310769 0 0 1-31.232-31.192616V490.692923h339.633231v243.219692h-42.338462a111.497846 111.497846 0 0 0-93.538461-89.737846 113.624615 113.624615 0 0 0-16.541539-1.220923c-53.070769 0-99.879385 38.951385-109.784615 90.958769H119.217231z m650.496-49.388308a70.301538 70.301538 0 0 1 70.262154 70.183385 70.301538 70.301538 0 0 1-70.262154 70.183384 70.419692 70.419692 0 0 1-70.242461-70.183384 70.301538 70.301538 0 0 1 70.242461-70.183385z m-494.375385 0a70.301538 70.301538 0 0 1 70.242462 70.183385 70.301538 70.301538 0 0 1-70.242462 70.183384 70.419692 70.419692 0 0 1-70.262153-70.183384 70.301538 70.301538 0 0 1 70.262153-70.183385zM275.475692 866.461538c53.070769 0 99.879385-38.951385 109.784616-90.978461h274.510769a111.497846 111.497846 0 0 0 93.538461 89.757538c5.474462 0.807385 11.027692 1.220923 16.541539 1.220923 53.070769 0 99.879385-38.951385 109.784615-90.978461h46.198154a73.019077 73.019077 0 0 0 72.861539-72.763077v-472.418462A73.019077 73.019077 0 0 0 925.833846 157.538462h-425.353846a73.019077 73.019077 0 0 0-72.861538 72.782769v56.064h-188.061539a73.255385 73.255385 0 0 0-53.661538 23.552l-134.301539 146.156307-0.157538 0.236308a18.648615 18.648615 0 0 0-1.969231 2.678154l-0.295385 0.492308a20.578462 20.578462 0 0 0-1.496615 3.170461l-0.177231 0.472616c-0.393846 1.122462-0.669538 2.264615-0.846769 3.406769l-0.078769 0.472615c-0.137846 0.964923-0.196923 1.910154-0.216616 2.835693v232.861538a73.019077 73.019077 0 0 0 72.861539 72.782769h46.178461a111.497846 111.497846 0 0 0 93.538462 89.737846c5.474462 0.807385 11.027692 1.220923 16.541538 1.220923z" p-id="2675" fill="#8a8a8a"></path></svg>