<?xml version="1.0" standalone="no"?><!DOCTYPE svg PUBLIC "-//W3C//DTD SVG 1.1//EN" "http://www.w3.org/Graphics/SVG/1.1/DTD/svg11.dtd"><svg t="1621146494444" class="icon" viewBox="0 0 1024 1024" version="1.1" xmlns="http://www.w3.org/2000/svg" p-id="2869" xmlns:xlink="http://www.w3.org/1999/xlink" width="102" height="102"><defs><style type="text/css"></style></defs><path d="M510.286769 736.768a16.718769 16.718769 0 0 1-16.541538-16.856615V639.606154h-76.209231a16.718769 16.718769 0 0 1-16.541538-16.836923c0-9.294769 7.424-16.856615 16.541538-16.856616h76.209231V555.913846h-83.495385a16.718769 16.718769 0 0 1-16.541538-16.836923c0-9.294769 7.424-16.856615 16.541538-16.856615h59.864616l-94.916924-96.689231a17.092923 17.092923 0 0 1 0-23.827692 16.285538 16.285538 0 0 1 23.394462 0l111.458462 113.526153 111.478153-113.526153a16.285538 16.285538 0 0 1 23.394462 0 17.092923 17.092923 0 0 1 0 23.827692l-94.936615 96.689231h60.317538c9.137231 0 16.541538 7.561846 16.541538 16.856615a16.718769 16.718769 0 0 1-16.541538 16.836923h-83.495385v49.979077h76.209231c9.117538 0 16.541538 7.561846 16.541539 16.856615a16.718769 16.718769 0 0 1-16.541539 16.836924h-76.209231v80.344615a16.718769 16.718769 0 0 1-16.541538 16.836923" p-id="2870" fill="#8a8a8a"></path><path d="M593.939692 206.257231c-12.307692 0.078769-22.291692 9.590154-22.291692 21.326769 0 11.756308 9.984 21.267692 22.291692 21.267692H803.643077c19.219692 0 34.934154 11.913846 34.934154 27.254154v540.100923c0 15.340308-15.714462 27.273846-34.934154 27.273846H216.477538c-19.219692 0-34.934154-11.933538-34.934153-27.273846V274.412308c0-15.340308 15.714462-27.273846 34.934153-27.273846h157.282462l-31.448615 20.440615 0.196923 0.334769c-6.242462 3.761231-10.436923 10.377846-10.436923 17.939692 0 11.756308 9.984 21.267692 22.291692 21.267693 5.080615 0 9.708308-1.693538 13.449846-4.430769l89.816615-57.245539c5.257846-3.406769 8.743385-10.24 10.496-17.033846 0-6.833231-3.505231-13.646769-8.743384-17.053539l-90.860308-64.728615-0.137846 0.157539a22.724923 22.724923 0 0 0-14.020923-4.844308c-12.307692 0-22.291692 9.511385-22.291692 21.248 0 8.192 4.923077 15.222154 12.051692 18.766769l34.875077 24.300308h-162.520616C172.8 206.257231 137.846154 236.898462 137.846154 274.392615v541.814154c0 39.187692 34.953846 69.868308 78.631384 69.868308H803.643077c43.677538 0 78.631385-30.680615 78.631385-69.868308V274.412308c0-37.494154-34.953846-68.155077-78.631385-68.155077H593.92z" p-id="2871" fill="#8a8a8a"></path></svg>