<?xml version="1.0" standalone="no"?><!DOCTYPE svg PUBLIC "-//W3C//DTD SVG 1.1//EN" "http://www.w3.org/Graphics/SVG/1.1/DTD/svg11.dtd"><svg t="1621149649889" class="icon" viewBox="0 0 1024 1024" version="1.1" xmlns="http://www.w3.org/2000/svg" p-id="19002" width="81" height="81" xmlns:xlink="http://www.w3.org/1999/xlink"><defs><style type="text/css"></style></defs><path d="M218.3168 956.672h597.4016c51.2512 0 92.8256-41.5744 92.8256-92.8256v-184.3712c0-10.4448-10.6496-17.5616-20.224-13.4144-40.704 17.408-135.8336 44.2368-221.7472-35.2768a14.51008 14.51008 0 0 0-18.7904-0.8192c-62.72 48.384-169.1648 84.2752-265.0624 0.2048-5.12-4.5056-12.6976-4.8128-18.176-0.768-40.448 29.5936-129.5872 69.9392-220.1088 41.4208-9.3696-2.9696-18.8928 4.0448-18.8928 13.8752v179.1488c-0.0512 51.3024 41.5232 92.8256 92.7744 92.8256z" fill="#FF623E" p-id="19003"></path><path d="M860.928 119.4496a70.6048 70.6048 0 0 0-59.1872-32.2048H228.7104c-27.1872 0-51.9168 15.616-63.6416 40.1408-15.2576 32.0512-39.9872 83.6096-75.1104 155.9552-64.7168 133.3248-45.1072 231.3728 0 278.4256 127.1296 115.0464 233.5744 24.8832 270.4384-14.9504 6.7584-7.3216 18.5344-6.5024 24.064 1.8432 16.8448 25.344 56.2176 67.9936 130.048 67.9936 73.0112 0 114.176-41.7792 132.4544-67.1744 5.9904-8.2944 18.176-8.704 24.4736-0.6656 31.5904 40.2432 120.0128 124.928 251.8528 28.6208 146.176-106.7008-3.1744-366.7968-62.3616-457.984z m-99.7888 286.7712H272.896c-16.9472 0-30.72-13.7728-30.72-30.72s13.7728-30.72 30.72-30.72h488.2432c16.9472 0 30.72 13.7728 30.72 30.72s-13.7728 30.72-30.72 30.72z" fill="#FF623E" p-id="19004"></path></svg>