<?xml version="1.0" standalone="no"?><!DOCTYPE svg PUBLIC "-//W3C//DTD SVG 1.1//EN" "http://www.w3.org/Graphics/SVG/1.1/DTD/svg11.dtd"><svg t="1621149576793" class="icon" viewBox="0 0 1024 1024" version="1.1" xmlns="http://www.w3.org/2000/svg" p-id="18044" width="81" height="81" xmlns:xlink="http://www.w3.org/1999/xlink"><defs><style type="text/css"></style></defs><path d="M634.5216 698.8288c1.024-5.0176-4.864-8.448-8.7552-5.12-18.5344 15.9232-58.7776 45.2096-104.2432 45.2096-46.7968 0-92.5184-17.3056-112.4352-25.9072-4.3008-1.8944-8.8064 2.3552-7.168 6.7584 8.1408 22.2208 35.3792 68.864 119.9616 68.864 84.5312-0.0512 106.8032-60.7744 112.64-89.8048z" fill="#FF623E" p-id="18045"></path><path d="M920.832 366.6944C876.9024 181.3504 710.144 43.008 511.5392 43.008c-198.5536 0-365.3632 138.3424-409.2928 323.6864-37.376 6.7072-65.7408 39.2704-65.7408 78.592v145.1008c0 44.1344 35.7888 79.9232 79.9232 79.9232 26.1632 0 49.2544-12.5952 63.8464-32 34.6112 86.272 103.6288 155.4432 190.4128 191.1296 5.9904 2.4576 10.5472-5.632 5.376-9.5232-58.2656-43.9808-114.9952-114.9952-111.104-223.7952 0-23.552 23.552-61.7472 71.5776-68.608 48.0256-6.8608 266.7008-2.9184 294.144-118.6304 5.888-31.3856 3.1232-54.7328 23.1936-38.5536 8.8064 7.68 76.8 84.6336 85.9648 210.1248 5.4784 75.4688-4.9152 157.696-61.3888 218.112-4.3008 4.608 1.3824 11.7248 6.7584 8.4992 69.2736-40.96 122.88-104.8576 150.016-180.992 8.96 17.8688 24.3712 31.8976 43.2128 39.0656-9.8304 39.936-31.3344 94.1568-78.4384 140.0832-58.0096 56.6272-141.3632 87.808-248.0128 92.928-10.1888-23.0912-33.2288-39.2704-60.1088-39.2704-36.2496 0-65.6896 29.3888-65.6896 65.6896 0 36.2496 29.3888 65.6896 65.6896 65.6896 27.4944 0 51.0464-16.9472 60.8256-40.9088 120.3712-5.5296 215.4496-41.5232 283.0336-107.4688 59.8528-58.4192 84.6336-127.2832 94.9248-175.2064 32.3584-10.1888 55.8592-40.448 55.8592-76.2368V445.2864c0.0512-39.2704-28.3136-71.8848-65.6896-78.592zM505.4464 168.3968c-150.6304 0-278.9888 93.7984-328.0896 225.2288a80.50176 80.50176 0 0 0-24.32-19.3536c40.0896-160.6656 185.6-280.064 358.5024-280.064s318.4128 119.3984 358.5024 280.064a80.05632 80.05632 0 0 0-32.512 31.0272C791.8592 267.776 660.48 168.3968 505.4464 168.3968z" fill="#FF623E" p-id="18046"></path></svg>