<?xml version="1.0" standalone="no"?><!DOCTYPE svg PUBLIC "-//W3C//DTD SVG 1.1//EN" "http://www.w3.org/Graphics/SVG/1.1/DTD/svg11.dtd"><svg t="1621149702905" class="icon" viewBox="0 0 1024 1024" version="1.1" xmlns="http://www.w3.org/2000/svg" p-id="19686" width="81" height="81" xmlns:xlink="http://www.w3.org/1999/xlink"><defs><style type="text/css"></style></defs><path d="M594.6368 454.5024c0-8.5504 3.328-16.5888 9.3696-22.6304l70.2976-70.2976-116.8896-116.8896-222.72 222.72 116.8896 116.8896 74.3936-74.3936c6.0416-6.0416 14.08-9.3696 22.6304-9.3696s16.5888 3.328 22.6304 9.3696l150.528 150.5792 32.768-32.768-150.5792-150.5792a31.95904 31.95904 0 0 1-9.3184-22.6304z" fill="#FF623E" p-id="19687"></path><path d="M516.4544 55.6032c-252.0576 0-456.3968 204.3392-456.3968 456.3968s204.3392 456.3968 456.3968 456.3968c252.0576 0 456.3968-204.3392 456.3968-456.3968s-204.3392-456.3968-456.3968-456.3968z m-14.7968 711.2704H301.6704c-14.1312 0-25.6-11.4688-25.6-25.6s11.4688-25.6 25.6-25.6h199.9872c14.1312 0 25.6 11.4688 25.6 25.6s-11.4688 25.6-25.6 25.6z m295.6288-109.4656l-45.7728 45.7728c-8.192 8.192-18.944 12.288-29.696 12.288s-21.504-4.096-29.696-12.288l-143.5136-143.5136-62.3104 62.3104a48.63488 48.63488 0 0 1-34.6624 14.336c-13.1072 0-25.3952-5.12-34.6624-14.3872L297.0112 502.0672c-19.0976-19.0976-19.0976-50.2272 0-69.3248l225.792-225.7408c9.2672-9.2672 21.5552-14.3872 34.6624-14.3872s25.3952 5.12 34.6624 14.3872l119.9104 119.9104c9.2672 9.2672 14.3872 21.5552 14.3872 34.6624s-5.12 25.3952-14.3872 34.6624l-58.2656 58.2656 143.5136 143.5136c16.384 16.384 16.3328 43.008 0 59.392z" fill="#FF623E" p-id="19688"></path></svg>