<?xml version="1.0" standalone="no"?><!DOCTYPE svg PUBLIC "-//W3C//DTD SVG 1.1//EN" "http://www.w3.org/Graphics/SVG/1.1/DTD/svg11.dtd"><svg t="1621149656955" class="icon" viewBox="0 0 1024 1024" version="1.1" xmlns="http://www.w3.org/2000/svg" p-id="19230" width="81" height="81" xmlns:xlink="http://www.w3.org/1999/xlink"><defs><style type="text/css"></style></defs><path d="M801.7408 164.9152C622.6432 17.4592 355.9936 29.8496 191.5904 202.1888c-164.5056 172.4416-164.5056 447.1808 0 619.6224 164.4032 172.3392 431.0016 184.7296 610.1504 37.2736 18.2272-15.0016 19.6608-42.3936 2.9696-59.0848l-259.7888-259.7888a39.86432 39.86432 0 0 1 0-56.3712l259.7888-259.7888c16.6912-16.7424 15.2576-44.1344-2.9696-59.136zM463.5136 227.84c0-30.7712 24.9344-55.7056 55.7056-55.7056 30.7712 0 55.7056 24.9344 55.7056 55.7056s-24.9344 55.7056-55.7056 55.7056c-30.7712 0-55.7056-24.9344-55.7056-55.7056z" fill="#FF623E" p-id="19231"></path><path d="M709.5808 512m-55.7056 0a55.7056 55.7056 0 1 0 111.4112 0 55.7056 55.7056 0 1 0-111.4112 0Z" fill="#FF623E" p-id="19232"></path><path d="M876.288 514.5088m-55.7056 0a55.7056 55.7056 0 1 0 111.4112 0 55.7056 55.7056 0 1 0-111.4112 0Z" fill="#FF623E" p-id="19233"></path></svg>