<?xml version="1.0" standalone="no"?><!DOCTYPE svg PUBLIC "-//W3C//DTD SVG 1.1//EN" "http://www.w3.org/Graphics/SVG/1.1/DTD/svg11.dtd"><svg t="1621149697548" class="icon" viewBox="0 0 1024 1024" version="1.1" xmlns="http://www.w3.org/2000/svg" p-id="19459" width="81" height="81" xmlns:xlink="http://www.w3.org/1999/xlink"><defs><style type="text/css"></style></defs><path d="M149.4016 256.0512a26.7264 26.7264 0 0 1-18.432-7.3728 26.81856 26.81856 0 0 1-0.9728-37.8368c68.2496-71.68 154.4704-123.2896 249.3952-149.0944 14.2336-3.8912 28.928 4.5056 32.8192 18.7904 3.8912 14.2336-4.5056 28.9792-18.7904 32.8192-85.504 23.296-163.1744 69.7344-224.6144 134.3488a26.69056 26.69056 0 0 1-19.4048 8.3456zM910.2336 274.2272c-7.5264 0-14.9504-3.1232-20.2752-9.2672-60.4672-69.9392-138.9056-121.0368-226.8672-147.7632a26.76224 26.76224 0 0 1-17.8176-33.3824 26.74176 26.74176 0 0 1 33.3824-17.8176c97.6384 29.6448 184.7296 86.3232 251.8016 163.9424a26.71104 26.71104 0 0 1-2.7648 37.7344c-5.0688 4.4032-11.264 6.5536-17.4592 6.5536zM521.5744 153.4976c-228.352 0-413.44 185.088-413.44 413.44s185.088 413.44 413.44 413.44 413.44-185.088 413.44-413.44-185.088-413.44-413.44-413.44z m150.784 402.688l-130.8672 179.5584a26.73664 26.73664 0 0 1-37.376 5.888 26.81344 26.81344 0 0 1-5.888-37.376l93.184-127.7952-198.4 29.7984c-10.7008 1.5872-21.2992-3.3792-26.88-12.6464-5.5808-9.2672-5.0176-20.992 1.3824-29.696l133.4272-180.7872a26.74176 26.74176 0 0 1 37.4272-5.632 26.74176 26.74176 0 0 1 5.632 37.4272l-95.0784 128.8704 197.888-29.696a26.7776 26.7776 0 0 1 26.8288 12.5952c5.5296 9.0624 5.0688 20.736-1.28 29.4912z" fill="#FF623E" p-id="19460"></path></svg>