<?xml version="1.0" standalone="no"?><!DOCTYPE svg PUBLIC "-//W3C//DTD SVG 1.1//EN" "http://www.w3.org/Graphics/SVG/1.1/DTD/svg11.dtd"><svg t="1621149618009" class="icon" viewBox="0 0 1024 1024" version="1.1" xmlns="http://www.w3.org/2000/svg" p-id="18786" width="81" height="81" xmlns:xlink="http://www.w3.org/1999/xlink"><defs><style type="text/css"></style></defs><path d="M320.3584 358.8608c26.0096 12.4928 93.0816 28.7232 193.9968 28.7232s167.9872-16.2304 193.9968-28.7232c-26.0096-12.4928-93.0816-28.7232-193.9968-28.7232s-167.9872 16.2304-193.9968 28.7232z" fill="#FF623E" p-id="18787"></path><path d="M514.3552 64.0512c-246.7328 0-446.72 199.9872-446.72 446.72s199.9872 446.72 446.72 446.72 446.72-199.9872 446.72-446.72-199.9872-446.72-446.72-446.72z m0 678.144c-44.1344 0-264.3456-4.352-264.3456-90.1632 0-16.9472 13.7728-30.72 30.72-30.72 15.0016 0 27.4944 10.752 30.1568 24.9344 14.3872 12.544 86.016 34.5088 203.4688 34.5088s189.0816-21.9648 203.4688-34.5088a30.71488 30.71488 0 0 1 30.1568-24.9344c16.9472 0 30.72 13.7728 30.72 30.72 0 85.8112-220.2112 90.1632-264.3456 90.1632z m0-149.4016c-44.1344 0-264.3456-4.352-264.3456-90.1632 0-16.9472 13.7728-30.72 30.72-30.72 15.0016 0 27.4944 10.752 30.1568 24.9344 14.3872 12.544 86.016 34.5088 203.4688 34.5088s189.0816-21.9648 203.4688-34.5088a30.71488 30.71488 0 0 1 30.1568-24.9344c16.9472 0 30.72 13.7728 30.72 30.72 0 85.8112-220.2112 90.1632-264.3456 90.1632z m0-143.7696c-44.1344 0-264.3456-4.352-264.3456-90.1632s220.2112-90.1632 264.3456-90.1632 264.3456 4.352 264.3456 90.1632-220.2112 90.1632-264.3456 90.1632z" fill="#FF623E" p-id="18788"></path></svg>