<?xml version="1.0" standalone="no"?><!DOCTYPE svg PUBLIC "-//W3C//DTD SVG 1.1//EN" "http://www.w3.org/Graphics/SVG/1.1/DTD/svg11.dtd"><svg t="1621149606223" class="icon" viewBox="0 0 1024 1024" version="1.1" xmlns="http://www.w3.org/2000/svg" p-id="18563" width="81" height="81" xmlns:xlink="http://www.w3.org/1999/xlink"><defs><style type="text/css"></style></defs><path d="M111.8208 846.7456V271.872s-12.7488-180.1728 212.6848-180.1728 204.4416 263.2192 131.8912 340.3264c-61.696 63.7952-201.3696 146.7392-122.3168 299.8784 49.3056 77.568 64.7168 190.9248-30.7712 228.2496-32.256 12.5952-68.3008 12.4928-100.7104 0.3584-43.4688-16.2304-90.7776-52.0192-90.7776-113.7664zM918.784 185.1392v574.8736s12.7488 180.1728-212.6848 180.1728-204.4416-263.2192-131.8912-340.3264c61.696-63.7952 201.3696-146.7392 122.3168-299.8784-49.3056-77.568-64.7168-190.9248 30.7712-228.2496 32.256-12.5952 68.3008-12.4928 100.7104-0.3584 43.4176 16.2304 90.7776 51.968 90.7776 113.7664z" fill="#FF623E" p-id="18564"></path></svg>