<?xml version="1.0" standalone="no"?><!DOCTYPE svg PUBLIC "-//W3C//DTD SVG 1.1//EN" "http://www.w3.org/Graphics/SVG/1.1/DTD/svg11.dtd"><svg t="1621076044736" class="icon" viewBox="0 0 1024 1024" version="1.1" xmlns="http://www.w3.org/2000/svg" p-id="11860" xmlns:xlink="http://www.w3.org/1999/xlink" width="24" height="24"><defs><style type="text/css"></style></defs><path d="M776.08448 565.01248v40.00768a20.39808 20.39808 0 0 1-14.12608 19.41504l-489.33376 158.1056c-13.16352 4.2496-26.65472-5.57568-26.65472-19.42016v-117.8368L107.008 683.1616a20.41344 20.41344 0 0 0-8.61184 34.54464l193.66912 182.30272a61.13792 61.13792 0 0 0 64.11264 12.45184l562.84672-219.3664a20.40832 20.40832 0 0 0 3.4304-36.3008l-146.37056-91.78112z m-40.77568-36.864c0-16.03584 17.63328-25.8048 31.21152-17.29024l177.5872 111.36c28.6208 17.95072 37.28896 55.72608 19.34848 84.36736a61.17376 61.17376 0 0 1-29.62944 24.52992L370.97984 950.48192a101.89824 101.89824 0 0 1-106.8544-20.75136l-193.66912-182.30272c-24.60672-23.16288-25.78944-61.9008-2.64192-86.51776a61.1584 61.1584 0 0 1 28.47744-17.11616l164.7104-44.9024c12.96896-3.5328 25.74848 6.23616 25.74848 19.6864v116.51584l448.55808-144.92672v-62.01856zM449.86368 682.3936l203.88864-65.87392V108.98432l-203.88864 15.61088V682.3936zM427.91936 85.3504l244.66432-18.72896a20.39296 20.39296 0 0 1 21.94432 20.34176v544.4096a20.39808 20.39808 0 0 1-14.12096 19.40992l-244.66944 79.0528c-13.16864 4.25472-26.65472-5.57056-26.65472-19.41504V105.69728a20.39808 20.39808 0 0 1 18.83648-20.34688zM286.75072 735.09376l122.33216-39.5264V270.57152L286.75072 287.5904v447.50336z m-23.19872-485.4784l163.11296-22.69184a20.39296 20.39296 0 0 1 23.1936 20.20352v463.29344a20.39808 20.39808 0 0 1-14.12096 19.41504L272.62464 782.5408c-13.16352 4.25472-26.65472-5.57056-26.65472-19.41504V269.82912a20.39808 20.39808 0 0 1 17.58208-20.20864z m430.976 353.72544l40.7808-13.17376V320.256l-40.7808 8.09984v274.97984z m-24.35584-311.74144l81.55136-16.19968a20.39296 20.39296 0 0 1 24.36096 20.00896v309.6064a20.39808 20.39808 0 0 1-14.12608 19.42016l-81.55136 26.34752c-13.16864 4.25472-26.65472-5.57056-26.65472-19.41504V311.60832a20.39808 20.39808 0 0 1 16.41984-20.00896z" p-id="11861" fill="#8bc17d"></path></svg>