<?xml version="1.0" standalone="no"?><!DOCTYPE svg PUBLIC "-//W3C//DTD SVG 1.1//EN" "http://www.w3.org/Graphics/SVG/1.1/DTD/svg11.dtd"><svg t="1620980311537" class="icon" viewBox="0 0 1088 1024" version="1.1" xmlns="http://www.w3.org/2000/svg" p-id="1880" xmlns:xlink="http://www.w3.org/1999/xlink" width="25.5" height="24"><defs><style type="text/css"></style></defs><path d="M1051.233064 399.847619m-37.169452 0a37.169452 37.169452 0 1 0 74.338904 0 37.169452 37.169452 0 1 0-74.338904 0Z" fill="#8BC17D" p-id="1881"></path><path d="M239.761366 19.688769m-19.688769 0a19.688769 19.688769 0 1 0 39.377538 0 19.688769 19.688769 0 1 0-39.377538 0Z" fill="#8BC17D" p-id="1882"></path><path d="M259.450135 764.549865m-259.450135 0a259.450135 259.450135 0 1 0 518.90027 0 259.450135 259.450135 0 1 0-518.90027 0Z" fill="#8BC17D" p-id="1883"></path><path d="M494.427314 488.355076H224.672776a114.636478 114.636478 0 0 1-114.452471-114.45247v-179.775023a114.636478 114.636478 0 0 1 114.452471-114.452471h179.775023a114.636478 114.636478 0 0 1 114.452471 114.452471v269.754537a24.472956 24.472956 0 0 1-24.472956 24.472956zM224.672776 128.621024a65.690566 65.690566 0 0 0-65.506559 65.506559v179.775023a65.506559 65.506559 0 0 0 65.506559 65.322551h245.281582V194.127583a65.690566 65.690566 0 0 0-65.506559-65.506559zM862.441689 488.355076H592.503145a24.656963 24.656963 0 0 1-24.472956-24.472956V194.127583a114.636478 114.636478 0 0 1 114.45247-114.452471h179.95903a114.636478 114.636478 0 0 1 114.452471 114.452471v179.775023a114.636478 114.636478 0 0 1-114.452471 114.45247z m-245.281581-49.129919h245.281581a65.322552 65.322552 0 0 0 65.322552-65.322551v-179.775023a65.506559 65.506559 0 0 0-65.322552-65.506559h-179.95903a65.506559 65.506559 0 0 0-65.322551 65.506559zM404.447799 946.16496h-179.775023A114.636478 114.636478 0 0 1 110.220305 831.712489v-179.775023a114.636478 114.636478 0 0 1 114.452471-114.45247h269.754538a24.288949 24.288949 0 0 1 24.472956 24.472955V831.712489a114.636478 114.636478 0 0 1-114.452471 114.452471z m-179.775023-359.734053a65.690566 65.690566 0 0 0-65.506559 65.506559V831.712489a65.690566 65.690566 0 0 0 65.506559 65.506559h179.775023a65.690566 65.690566 0 0 0 65.506559-65.506559V586.430907zM862.441689 946.16496h-179.95903a114.636478 114.636478 0 0 1-114.45247-114.452471V561.957951a24.472956 24.472956 0 0 1 24.472956-24.472955h269.938544a114.636478 114.636478 0 0 1 114.452471 114.45247V831.712489a114.636478 114.636478 0 0 1-114.452471 114.452471zM617.160108 586.430907V831.712489a65.506559 65.506559 0 0 0 65.322551 65.506559h179.95903a65.506559 65.506559 0 0 0 65.322552-65.506559v-179.775023a65.506559 65.506559 0 0 0-65.322552-65.506559z" fill="#535453" p-id="1884"></path></svg>