<?xml version="1.0" standalone="no"?><!DOCTYPE svg PUBLIC "-//W3C//DTD SVG 1.1//EN" "http://www.w3.org/Graphics/SVG/1.1/DTD/svg11.dtd"><svg t="1620980319379" class="icon" viewBox="0 0 1024 1024" version="1.1" xmlns="http://www.w3.org/2000/svg" p-id="2030" xmlns:xlink="http://www.w3.org/1999/xlink" width="24" height="24"><defs><style type="text/css"></style></defs><path d="M941.52543 303.413991m-41.237286 0a41.237285 41.237285 0 1 0 82.474571 0 41.237285 41.237285 0 1 0-82.474571 0Z" fill="#8BC17D" p-id="2031"></path><path d="M202.098247 36.260371m-21.862871 0a21.862871 21.862871 0 1 0 43.725742 0 21.862871 21.862871 0 1 0-43.725742 0Z" fill="#8BC17D" p-id="2032"></path><path d="M329.542788 735.694497m-288.305503 0a288.305503 288.305503 0 1 0 576.611005 0 288.305503 288.305503 0 1 0-576.611005 0Z" fill="#8BC17D" p-id="2033"></path><path d="M734.094775 962.499566H261.998959a136.331887 136.331887 0 0 1-136.331887-136.15414V354.071863a136.509634 136.509634 0 0 1 136.331887-136.15414h27.195278V206.186426C289.194237 92.428398 382.866863 0 498.046867 0s208.85263 92.428398 208.85263 206.186426v11.731297h27.195278a136.509634 136.509634 0 0 1 136.331887 136.15414v472.273563a136.331887 136.331887 0 0 1-136.331887 136.15414zM261.998959 272.30828a81.94133 81.94133 0 0 0-81.763583 81.763583v472.273563a81.763583 81.763583 0 0 0 81.763583 81.763583h472.095816a81.763583 81.763583 0 0 0 81.763583-81.763583V354.071863a81.94133 81.94133 0 0 0-81.763583-81.763583h-27.195278v84.252039a27.195279 27.195279 0 0 1-54.390558 0v-84.252039H343.584794v84.252039a27.195279 27.195279 0 1 1-54.390557 0v-84.252039z m81.585835-54.390557h308.924145V206.186426c0-83.718799-69.321298-151.795869-154.462072-151.795869s-154.462073 68.07707-154.462073 151.795869z" fill="#535453" p-id="2034"></path></svg>